<?xml version="1.0" encoding="UTF-8"?>
<!DOCTYPE svg PUBLIC "-//W3C//DTD SVG 1.1//EN" "http://www.w3.org/Graphics/SVG/1.1/DTD/svg11.dtd">
<!-- Creator: CorelDRAW X7 -->
<svg xmlns="http://www.w3.org/2000/svg" xml:space="preserve" width="192px" height="192px" version="1.1" style="shape-rendering:geometricPrecision; text-rendering:geometricPrecision; image-rendering:optimizeQuality; fill-rule:evenodd; clip-rule:evenodd"
viewBox="0 0 3301926 3301926"
 xmlns:xlink="http://www.w3.org/1999/xlink">
 <defs>
  <style type="text/css">
   <![CDATA[
    .fil0 {fill:none}
    .fil1 {fill:#4BA2F2}
    .fil3 {fill:white}
    .fil2 {fill:black;fill-opacity:0.101961}
   ]]>
  </style>
    <clipPath id="id0">
     <path d="M343944 343944l2666281 0 0 2666281 -2666281 0 0 -2666281z"/>
    </clipPath>
 </defs>
 <g id="Layer_x0020_1">
  <metadata id="CorelCorpID_0Corel-Layer"/>
  <rect class="fil0" width="3301926" height="3301926"/>
  <g id="_2673314773888">
   <g style="clip-path:url(#id0)">
    <image x="343944" y="343944" width="2666281" height="2666281" xlink:href="sharetoclipboard-icon-ds_Images\sharetoclipboard-icon-ds_ImgID1.png"/>
   </g>
  </g>
  <g id="_2673314774720">
   <rect class="fil1" x="343951" y="343951" width="2614024" height="2614024" rx="206363" ry="206363"/>
   <path class="fil2" d="M2957982 1450544l0 1301068c0,113503 -92867,206370 -206370,206370l-1354103 0 -441584 -441604 390378 -575197 -340369 -340409 75560 -75561 0 -633634 699141 0 144459 -144439 211753 211794 164772 -164751 656363 656363z"/>
   <g>
    <path class="fil3" d="M1409067 736068l489439 0c20738,0 37658,16899 37658,37638l0 9425 338846 0c20738,0 37658,16920 37658,37638l0 1618972c0,20738 -16920,37658 -37658,37658l-301187 0c-20739,0 -37659,-16920 -37659,-37658l0 -112956c0,-20718 16920,-37638 37659,-37638l112935 0c20738,0 37658,-16920 37658,-37659l0 -1242467c0,-20718 -16920,-37638 -37658,-37638l-150594 0 0 9404c0,20739 -16920,37659 -37658,37659l-489439 0c-20739,0 -37659,-16920 -37659,-37659l0 -9404 -150593 0c-20739,0 -37659,16920 -37659,37638l0 565122c0,20738 -16920,37658 -37638,37658l-112955 0c-20739,0 -37659,-16920 -37659,-37658l0 -753374c0,-20718 16920,-37638 37659,-37638l338845 0 0 -9425c0,-20739 16920,-37638 37659,-37638z"/>
    <path class="fil3" d="M1070363 2195935c-95202,9364 -169585,89678 -169585,187338 0,103957 84295,188252 188252,188252 63008,0 118765,-30956 152930,-78465 7312,-10156 18057,-15661 30569,-15661l197758 0c12513,0 23258,5505 30570,15661 34165,47509 89942,78465 152929,78465 103957,0 188252,-84295 188252,-188252 0,-103977 -84295,-188252 -188252,-188252 -62987,0 -118764,30935 -152929,78445 -7312,10156 -18057,15681 -30570,15681l-152990 -20c-13833,0 -25695,-6845 -32601,-18830 -6926,-11963 -6906,-25674 0,-37638l76495 -132516c6256,-10846 16453,-17407 28904,-18626 95203,-9384 169565,-89677 169565,-187338 0,-103977 -84295,-188252 -188252,-188252 -103957,0 -188252,84275 -188252,188252 0,27645 5952,53888 16656,77531 5159,11416 4570,23501 -1686,34348l-98859 171231c-6256,10846 -16452,17407 -28904,18646z"/>
   </g>
  </g>
 </g>
</svg>
