<?xml version="1.0" encoding="UTF-8"?>
<!DOCTYPE svg PUBLIC "-//W3C//DTD SVG 1.1//EN" "http://www.w3.org/Graphics/SVG/1.1/DTD/svg11.dtd">
<!-- Creator: CorelDRAW X7 -->
<svg xmlns="http://www.w3.org/2000/svg" xml:space="preserve" width="192px" height="192px" version="1.1" style="shape-rendering:geometricPrecision; text-rendering:geometricPrecision; image-rendering:optimizeQuality; fill-rule:evenodd; clip-rule:evenodd"
viewBox="0 0 2613973 2613973"
 xmlns:xlink="http://www.w3.org/1999/xlink">
 <defs>
  <style type="text/css">
   <![CDATA[
    .fil0 {fill:none}
    .fil1 {fill:#4BA2F2}
    .fil3 {fill:white}
    .fil2 {fill:black;fill-opacity:0.101961}
   ]]>
  </style>
 </defs>
 <g id="Layer_x0020_1">
  <metadata id="CorelCorpID_0Corel-Layer"/>
  <rect class="fil0" width="2613973" height="2613973"/>
  <g id="_2673314734848">
   <rect class="fil1" x="272289" y="272289" width="2069395" height="2069395" rx="163367" ry="163367"/>
   <path class="fil2" d="M2341690 1148325l0 1029991c0,89856 -73518,163374 -163374,163374l-1071976 0 -349581 -349597 309043 -455355 -269454 -269485 59818 -59818 0 -501617 553476 0 114361 -114345 167635 167666 130441 -130425 519611 519611z"/>
   <g>
    <path class="fil3" d="M1115489 582709l387465 0c16418,0 29813,13379 29813,29796l0 7461 268247 0c16418,0 29812,13395 29812,29797l0 1281660c0,16418 -13394,29813 -29812,29813l-238435 0c-16418,0 -29812,-13395 -29812,-29813l0 -89421c0,-16402 13394,-29796 29812,-29796l89405 0c16418,0 29813,-13395 29813,-29813l0 -983600c0,-16402 -13395,-29797 -29813,-29797l-119217 0 0 7445c0,16418 -13395,29813 -29813,29813l-387465 0c-16417,0 -29812,-13395 -29812,-29813l0 -7445 -119218 0c-16417,0 -29812,13395 -29812,29797l0 447379c0,16418 -13395,29812 -29796,29812l-89422 0c-16417,0 -29812,-13394 -29812,-29812l0 -596409c0,-16402 13395,-29797 29812,-29797l268248 0 0 -7461c0,-16417 13395,-29796 29812,-29796z"/>
    <path class="fil3" d="M847354 1738414c-75367,7413 -134252,70994 -134252,148307 0,82297 66732,149030 149030,149030 49880,0 94020,-24506 121067,-62118 5789,-8040 14295,-12397 24200,-12397l156556 0c9905,0 18411,4357 24200,12397 27047,37612 71203,62118 121067,62118 82297,0 149030,-66733 149030,-149030 0,-82314 -66733,-149030 -149030,-149030 -49864,0 -94020,24490 -121067,62101 -5789,8040 -14295,12414 -24200,12414l-121115 -16c-10951,0 -20342,-5419 -25809,-14907 -5483,-9471 -5467,-20325 0,-29796l60558 -104906c4952,-8587 13024,-13781 22882,-14746 75367,-7429 134236,-70993 134236,-148306 0,-82314 -66732,-149030 -149030,-149030 -82298,0 -149030,66716 -149030,149030 0,21885 4711,42661 13186,61378 4084,9037 3618,18604 -1335,27191l-78262 135555c-4952,8587 -13025,13781 -22882,14761z"/>
   </g>
  </g>
 </g>
</svg>
