<?xml version="1.0" encoding="UTF-8"?>
<!DOCTYPE svg PUBLIC "-//W3C//DTD SVG 1.1//EN" "http://www.w3.org/Graphics/SVG/1.1/DTD/svg11.dtd">
<!-- Creator: CorelDRAW X7 -->
<svg xmlns="http://www.w3.org/2000/svg" xml:space="preserve" width="512px" height="190px" version="1.1" style="shape-rendering:geometricPrecision; text-rendering:geometricPrecision; image-rendering:optimizeQuality; fill-rule:evenodd; clip-rule:evenodd"
viewBox="0 0 19691037 7313262"
 xmlns:xlink="http://www.w3.org/1999/xlink">
 <defs>
  <style type="text/css">
   <![CDATA[
    .fil0 {fill:none}
    .fil1 {fill:#3A596D}
    .fil2 {fill:#4BA2F2}
    .fil3 {fill:#4BA2F2;fill-rule:nonzero}
   ]]>
  </style>
 </defs>
 <g id="Layer_x0020_1">
  <metadata id="CorelCorpID_0Corel-Layer"/>
  <rect class="fil0" x="-1" width="19691038" height="7313262"/>
  <g id="_2008170033472">
   <g>
    <path class="fil1" d="M2673091 1616750l1120909 0c47496,0 86245,38703 86245,86198l0 21585 776022 0c47495,0 86245,38750 86245,86199l0 3707755c0,47495 -38750,86245 -86245,86245l-689776 0c-47496,0 -86246,-38750 -86246,-86245l0 -258690c0,-47449 38750,-86198 86246,-86198l258642 0c47496,0 86246,-38750 86246,-86246l0 -2845488c0,-47449 -38750,-86199 -86246,-86199l-344888 0 0 21538c0,47495 -38749,86245 -86245,86245l-1120909 0c-47495,0 -86245,-38750 -86245,-86245l0 -21538 -344888 0c-47496,0 -86245,38750 -86245,86199l0 1294237c0,47495 -38750,86245 -86199,86245l-258689 0c-47496,0 -86246,-38750 -86246,-86245l0 -1725370c0,-47449 38750,-86199 86246,-86199l776021 0 0 -21585c0,-47495 38750,-86198 86245,-86198z"/>
    <path class="fil2" d="M1897396 4960125c-218033,21445 -388383,205379 -388383,429040 0,238082 193051,431133 431133,431133 144300,0 271994,-70894 350238,-179700 16746,-23260 41355,-35866 70010,-35866l452904 0c28655,0 53263,12606 70010,35866 78244,108806 205984,179700 350238,179700 238081,0 431133,-193051 431133,-431133 0,-238128 -193052,-431133 -431133,-431133 -144254,0 -271994,70848 -350238,179654 -16747,23260 -41355,35913 -70010,35913l-350377 -47c-31679,0 -58846,-15677 -74663,-43123 -15862,-27399 -15816,-58799 0,-86198l175189 -303487c14328,-24841 37680,-39866 66196,-42657 218032,-21492 388336,-205379 388336,-429040 0,-238128 -193052,-431133 -431133,-431133 -238082,0 -431133,193005 -431133,431133 0,63312 13630,123413 38145,177561 11815,26143 10466,53822 -3861,78663l-226406 392150c-14327,24841 -37680,39867 -66195,42704z"/>
   </g>
   <g>
    <g>
     <path class="fil3" d="M17163084 4120979c258829,0 457463,63358 595762,189981 138486,126623 207659,302742 207659,528403 0,225522 -67545,404013 -202495,535521 -134857,131461 -340748,197285 -617533,197285l-496120 0 0 -1451190 512727 0zm16607 1164683c148068,0 261946,-37401 341446,-112063 79593,-74802 119413,-183469 119413,-325955 0,-142626 -39820,-252224 -119413,-329072 -79500,-76849 -201704,-115180 -366333,-115180l-180678 0 0 882270 205565 0z"/>
     <path class="fil3" d="M16318169 4602677c0,232546 -92060,382708 -276180,450392l367589 519100 -398664 0 -321814 -462952 -224219 0 0 462952 -323816 0 0 -1451190 550128 0c225661,0 386522,38052 482769,114156 96107,76104 144207,198587 144207,367542zm-616649 226313c110761,0 186167,-18049 226312,-54055 40099,-35959 60242,-92990 60242,-171188 0,-78244 -20701,-131926 -62335,-160954 -41448,-29074 -114156,-43541 -217985,-43541l-242873 0 0 429738 236639 0z"/>
     <path class="fil3" d="M14628339 5572169l-134997 -313581 -608229 0 -134950 313581 -344609 0 626930 -1451190 313488 0 627022 1451190 -344655 0zm-438018 -1019406l-182725 421504 363310 0 -180585 -421504z"/>
     <path class="fil3" d="M13144027 5371767c-146672,143370 -327257,214869 -541893,214869 -214450,0 -395082,-71499 -541708,-214869 -146766,-143230 -220079,-321396 -220079,-534497 0,-213241 73313,-391406 220079,-534590 146626,-143231 327258,-214916 541708,-214916 214636,0 395221,71685 541893,214916 146720,143184 220079,321349 220079,534590 0,213101 -73359,391267 -220079,534497zm-110016 -533474c0,-129367 -41494,-239756 -124576,-331118 -83082,-91362 -185097,-136997 -306231,-136997 -121041,0 -223056,45635 -306138,136997 -83082,91362 -124577,201751 -124577,331118 0,129322 41495,239338 124577,330049 83082,90711 185097,136020 306138,136020 121134,0 223149,-45309 306231,-136020 83082,-90711 124576,-200727 124576,-330049z"/>
     <path class="fil3" d="M11128289 5572169l-635210 0 0 -1451190 564595 0c98340,0 183050,11815 254409,35354 71220,23538 124809,55357 160861,95549 64987,74662 97549,159046 97549,253200 0,113505 -36703,197889 -110062,253246 -24888,19398 -42192,31540 -51961,36331 -9583,4885 -26935,12839 -51822,23818 89920,19444 161559,59962 214869,121552 53310,61498 79965,138067 79965,229383 0,101038 -34610,190214 -103783,267807 -80290,89920 -220078,134950 -419410,134950zm-311441 -274040l222125 0c92758,0 162303,-11397 208682,-34285 46333,-22840 69592,-67824 69592,-134950 0,-67079 -24562,-111365 -73732,-132856 -49123,-21445 -127693,-32145 -235616,-32145l-191051 0 0 334236zm0 -589576l153697 0c89920,0 156674,-9768 200262,-29120 43681,-19398 65405,-61218 65405,-125600 0,-64289 -20096,-106899 -60195,-127647 -40192,-20793 -107877,-31121 -203379,-31121l-155790 0 0 313488z"/>
     <path class="fil3" d="M9600343 4120979c222870,0 385080,43262 486862,129833 101736,86524 152628,219334 152628,398523 0,179236 -52241,310418 -156814,393361 -104434,83082 -263946,124576 -478489,124576l-193098 0 0 404897 -323816 0 0 -1451190 512727 0zm29074 766066c107969,0 181283,-21771 220079,-65405 38796,-43588 58195,-107272 58195,-190959 0,-83779 -25353,-143183 -75872,-178584 -50473,-35261 -128996,-52845 -235570,-52845l-184817 0 0 487793 217985 0z"/>
     <polygon class="fil3" points="8406726,4120979 8730494,4120979 8730494,5572169 8406726,5572169 "/>
     <polygon class="fil3" points="7227622,5572169 7227622,4120979 7551344,4120979 7551344,5283522 8170086,5283522 8170086,5572169 "/>
     <path class="fil3" d="M6374240 5285662c159233,0 289392,-63033 390383,-188912l207612 213799c-164768,185469 -358797,278180 -582411,278180 -223475,0 -407548,-70522 -552128,-211752 -144672,-141183 -216962,-319349 -216962,-534543 0,-215241 73639,-394756 221149,-538731 147371,-143975 327583,-215939 540684,-215939 238082,0 437413,90665 597995,271947l-201425 228360c-102433,-127275 -229708,-190912 -381916,-190912 -121879,0 -226034,39727 -312465,119320 -86524,79546 -129740,186818 -129740,321814 0,134951 40750,243199 122483,324792 81593,81733 180538,122577 296741,122577z"/>
    </g>
    <g>
     <path class="fil3" d="M16020032 3008536c-146626,143323 -327304,214869 -541847,214869 -214497,0 -395128,-71546 -541801,-214869 -146719,-143231 -220079,-321396 -220079,-534544 0,-213194 73360,-391360 220079,-534544 146673,-143230 327304,-214915 541801,-214915 214543,0 395221,71685 541847,214915 146766,143184 220079,321350 220079,534544 0,213148 -73313,391313 -220079,534544zm-110063 -533474c0,-129414 -41448,-239803 -124530,-331119 -83035,-91362 -185143,-136996 -306277,-136996 -120995,0 -223056,45634 -306138,136996 -83036,91316 -124484,201705 -124484,331119 0,129275 41448,239337 124484,329955 83082,90805 185143,136067 306138,136067 121134,0 223242,-45262 306277,-136067 83082,-90618 124530,-200680 124530,-329955z"/>
     <polygon class="fil3" points="14191065,2038021 14191065,3208891 13867204,3208891 13867204,2038021 13456213,2038021 13456213,1757747 14602056,1757747 14602056,2038021 "/>
    </g>
    <g>
     <polygon class="fil3" points="12717081,1757747 12717081,2046348 11994556,2046348 11994556,2345322 12644372,2345322 12644372,2621363 11994556,2621363 11994556,2922430 12739875,2922430 12739875,3208891 11670787,3208891 11670787,1757747 "/>
     <path class="fil3" d="M11338599 2239446c0,232499 -92060,382661 -276180,450345l367589 519100 -398664 0 -321814 -462952 -224219 0 0 462952 -323816 0 0 -1451144 550128 0c225661,0 386522,38052 482722,114156 96154,76105 144254,198588 144254,367543zm-616649 226312c110760,0 186167,-18095 226312,-54054 40099,-36006 60242,-93037 60242,-171235 0,-78197 -20701,-131926 -62335,-160954 -41448,-29027 -114156,-43587 -217986,-43587l-242872 0 0 429830 236639 0z"/>
     <path class="fil3" d="M9648769 3208891l-134997 -313535 -608229 0 -134950 313535 -344609 0 626930 -1451144 313488 0 627022 1451144 -344655 0zm-438018 -1019359l-182725 421503 363310 0 -180585 -421503z"/>
     <polygon class="fil3" points="7933912,1757747 8257773,1757747 8257773,3208891 7933912,3208891 7933912,2638016 7356804,2638016 7356804,3208891 7032989,3208891 7032989,1757747 7356804,1757747 7356804,2363976 7933912,2363976 "/>
     <path class="fil3" d="M6175700 2008993c-54055,0 -96573,12746 -127787,38378 -31074,25585 -46658,59544 -46658,101736 0,42192 19119,75686 57125,100712 38052,24888 125925,54241 263620,88106 137695,33959 244687,84850 320792,152721 76104,67777 114156,166722 114156,296741 0,130159 -48845,235663 -146440,316651 -97503,80989 -225847,121460 -385034,121460 -229708,0 -436622,-85175 -620696,-255340l193005 -236639c156396,136950 301068,205518 433878,205518 59544,0 106202,-12885 140114,-38471 33958,-25631 50938,-60148 50938,-103782 0,-43588 -18050,-78198 -54008,-103737 -36006,-25631 -107272,-51682 -213892,-77871 -168816,-40146 -292322,-92386 -370520,-156814 -78197,-64289 -117319,-165327 -117319,-303022 0,-137694 49495,-243942 148440,-318698 99038,-74801 222544,-112109 370613,-112109 96898,0 193749,16560 290601,49868 96851,33214 181282,80291 253293,141137l-163978 236686c-125925,-95549 -256084,-143231 -390243,-143231z"/>
    </g>
   </g>
  </g>
 </g>
</svg>
