<?xml version="1.0" encoding="UTF-8"?>
<!DOCTYPE svg PUBLIC "-//W3C//DTD SVG 1.1//EN" "http://www.w3.org/Graphics/SVG/1.1/DTD/svg11.dtd">
<!-- Creator: CorelDRAW X7 -->
<svg xmlns="http://www.w3.org/2000/svg" xml:space="preserve" width="512px" height="512px" version="1.1" style="shape-rendering:geometricPrecision; text-rendering:geometricPrecision; image-rendering:optimizeQuality; fill-rule:evenodd; clip-rule:evenodd"
viewBox="0 0 7460133 7460133"
 xmlns:xlink="http://www.w3.org/1999/xlink">
 <defs>
  <style type="text/css">
   <![CDATA[
    .fil0 {fill:#4BA2F2}
    .fil2 {fill:white}
    .fil1 {fill:black;fill-opacity:0.101961}
   ]]>
  </style>
 </defs>
 <g id="Layer_x0020_1">
  <metadata id="CorelCorpID_0Corel-Layer"/>
  <rect class="fil0" x="20" y="20" width="7460093" height="7460093" rx="588934" ry="588934"/>
  <path class="fil1" d="M7460133 3158096l0 3713082c0,323926 -265029,588955 -588955,588955l-3864436 0 -1260224 -1260282 1114087 -1641538 -971370 -971485 215641 -215641 0 -1808312 1995258 0 412269 -412210 604316 604432 470236 -470178 1873178 1873177z"/>
  <g id="_2008170065536">
   <path class="fil2" d="M3039726 1119072l1396797 0c59185,0 107472,48230 107472,107415l0 26897 967022 0c59186,0 107473,48287 107473,107415l0 4620339c0,59185 -48287,107472 -107473,107472l-859549 0c-59185,0 -107473,-48287 -107473,-107472l0 -322360c0,-59128 48288,-107415 107473,-107415l322302 0c59185,0 107473,-48287 107473,-107473l0 -3545844c0,-59127 -48288,-107415 -107473,-107415l-429775 0 0 26840c0,59185 -48287,107472 -107472,107472l-1396797 0c-59186,0 -107473,-48287 -107473,-107472l0 -26840 -429775 0c-59185,0 -107472,48288 -107472,107415l0 1612786c0,59185 -48288,107472 -107415,107472l-322360 0c-59185,0 -107473,-48287 -107473,-107472l0 -2150033c0,-59128 48288,-107415 107473,-107415l967022 0 0 -26897c0,-59185 48287,-107415 107473,-107415z"/>
   <path class="fil2" d="M2073109 5285348c-271696,26723 -483974,255929 -483974,534639 0,296680 240567,537247 537247,537247 179817,0 338939,-88343 436441,-223930 20869,-28984 51534,-44694 87242,-44694l564376 0c35709,0 66374,15710 87242,44694 97502,135587 256682,223930 436441,223930 296680,0 537248,-240567 537248,-537247 0,-296738 -240568,-537248 -537248,-537248 -179759,0 -338939,88286 -436441,223873 -20868,28984 -51533,44751 -87242,44751l-436615 -58c-39476,0 -73329,-19535 -93038,-53736 -19767,-34143 -19709,-73272 0,-107415l218307 -378183c17854,-30955 46954,-49679 82489,-53157 271696,-26781 483916,-255929 483916,-534639 0,-296738 -240567,-537247 -537247,-537247 -296680,0 -537247,240509 -537247,537247 0,78895 16984,153789 47533,221264 14724,32578 13043,67069 -4811,98024l-282130 488670c-17854,30955 -46954,49679 -82489,53215z"/>
  </g>
 </g>
</svg>
