<?xml version="1.0" encoding="UTF-8"?>
<!DOCTYPE svg PUBLIC "-//W3C//DTD SVG 1.1//EN" "http://www.w3.org/Graphics/SVG/1.1/DTD/svg11.dtd">
<!-- Creator: CorelDRAW X7 -->
<svg xmlns="http://www.w3.org/2000/svg" xml:space="preserve" width="512px" height="512px" version="1.1" style="shape-rendering:geometricPrecision; text-rendering:geometricPrecision; image-rendering:optimizeQuality; fill-rule:evenodd; clip-rule:evenodd"
viewBox="0 0 5399278 5399278"
 xmlns:xlink="http://www.w3.org/1999/xlink">
 <defs>
  <style type="text/css">
   <![CDATA[
    .fil0 {fill:none}
    .fil1 {fill:#3A596D}
    .fil2 {fill:#4BA2F2}
   ]]>
  </style>
 </defs>
 <g id="Layer_x0020_1">
  <metadata id="CorelCorpID_0Corel-Layer"/>
  <rect class="fil0" width="5399278" height="5399278"/>
  <g id="_2008170018880">
   <path class="fil1" d="M2365438 1193623l827552 0c35065,0 63673,28574 63673,63640l0 15935 572926 0c35065,0 63673,28609 63673,63639l0 2737383c0,35066 -28608,63674 -63673,63674l-509252 0c-35065,0 -63674,-28608 -63674,-63674l0 -190986c0,-35031 28609,-63639 63674,-63639l190952 0c35065,0 63674,-28609 63674,-63674l0 -2100784c0,-35031 -28609,-63639 -63674,-63639l-254626 0 0 15901c0,35065 -28608,63674 -63673,63674l-827552 0c-35065,0 -63673,-28609 -63673,-63674l0 -15901 -254626 0c-35065,0 -63674,28608 -63674,63639l0 955517c0,35065 -28608,63674 -63639,63674l-190987 0c-35065,0 -63674,-28609 -63674,-63674l0 -1273817c0,-35030 28609,-63639 63674,-63639l572926 0 0 -15935c0,-35066 28608,-63640 63673,-63640z"/>
   <path class="fil2" d="M1792753 3661990c-160970,15833 -286737,151629 -286737,316754 0,175773 142527,318300 318299,318300 106535,0 200809,-52340 258576,-132671 12364,-17172 30531,-26479 51687,-26479l334373 0c21156,0 39324,9307 51687,26479 57767,80331 152075,132671 258576,132671 175772,0 318299,-142527 318299,-318300 0,-175806 -142527,-318299 -318299,-318299 -106501,0 -200809,52306 -258576,132636 -12363,17172 -30531,26514 -51687,26514l-258679 -35c-23388,0 -43445,-11574 -55122,-31837 -11711,-20228 -11677,-43410 0,-63639l129340 -224060c10577,-18339 27818,-29432 48871,-31493 160970,-15867 286703,-151629 286703,-316754 0,-175807 -142527,-318300 -318299,-318300 -175773,0 -318300,142493 -318300,318300 0,46742 10063,91114 28162,131091 8723,19301 7727,39736 -2851,58075l-167151 289520c-10578,18339 -27819,29432 -48872,31527z"/>
  </g>
 </g>
</svg>
